<svg width="30" height="31" viewBox="0 0 30 31" fill="none" xmlns="http://www.w3.org/2000/svg">
<path d="M7.5 10.3333C8.875 10.3333 10 9.17082 10 7.74999C10 6.32916 8.875 5.16666 7.5 5.16666C6.125 5.16666 5 6.32916 5 7.74999C5 9.17082 6.125 10.3333 7.5 10.3333ZM15 25.8333C16.375 25.8333 17.5 24.6708 17.5 23.25C17.5 21.8292 16.375 20.6667 15 20.6667C13.625 20.6667 12.5 21.8292 12.5 23.25C12.5 24.6708 13.625 25.8333 15 25.8333ZM7.5 25.8333C8.875 25.8333 10 24.6708 10 23.25C10 21.8292 8.875 20.6667 7.5 20.6667C6.125 20.6667 5 21.8292 5 23.25C5 24.6708 6.125 25.8333 7.5 25.8333ZM7.5 18.0833C8.875 18.0833 10 16.9208 10 15.5C10 14.0792 8.875 12.9167 7.5 12.9167C6.125 12.9167 5 14.0792 5 15.5C5 16.9208 6.125 18.0833 7.5 18.0833ZM15 18.0833C16.375 18.0833 17.5 16.9208 17.5 15.5C17.5 14.0792 16.375 12.9167 15 12.9167C13.625 12.9167 12.5 14.0792 12.5 15.5C12.5 16.9208 13.625 18.0833 15 18.0833ZM20 7.74999C20 9.17082 21.125 10.3333 22.5 10.3333C23.875 10.3333 25 9.17082 25 7.74999C25 6.32916 23.875 5.16666 22.5 5.16666C21.125 5.16666 20 6.32916 20 7.74999ZM15 10.3333C16.375 10.3333 17.5 9.17082 17.5 7.74999C17.5 6.32916 16.375 5.16666 15 5.16666C13.625 5.16666 12.5 6.32916 12.5 7.74999C12.5 9.17082 13.625 10.3333 15 10.3333ZM22.5 18.0833C23.875 18.0833 25 16.9208 25 15.5C25 14.0792 23.875 12.9167 22.5 12.9167C21.125 12.9167 20 14.0792 20 15.5C20 16.9208 21.125 18.0833 22.5 18.0833ZM22.5 25.8333C23.875 25.8333 25 24.6708 25 23.25C25 21.8292 23.875 20.6667 22.5 20.6667C21.125 20.6667 20 21.8292 20 23.25C20 24.6708 21.125 25.8333 22.5 25.8333Z" fill="#FFFEFE"/>
</svg>
