<svg width="19" height="18" viewBox="0 0 19 18" fill="none" xmlns="http://www.w3.org/2000/svg">
<path d="M2.475 18C1.775 18 1.1875 17.7625 0.7125 17.2875C0.2375 16.8125 0 16.2417 0 15.575C0 15.3417 0.025 15.1292 0.075 14.9375C0.125 14.7458 0.2 14.5667 0.3 14.4L6 5.875C6.16667 5.64167 6.29167 5.38333 6.375 5.1C6.45833 4.81667 6.5 4.53333 6.5 4.25V1.5H6C5.78333 1.5 5.60417 1.42917 5.4625 1.2875C5.32083 1.14583 5.25 0.966667 5.25 0.75C5.25 0.533333 5.32083 0.354167 5.4625 0.2125C5.60417 0.0708333 5.78333 0 6 0H12.5C12.7167 0 12.8958 0.0708333 13.0375 0.2125C13.1792 0.354167 13.25 0.533333 13.25 0.75C13.25 0.966667 13.1792 1.14583 13.0375 1.2875C12.8958 1.42917 12.7167 1.5 12.5 1.5H12V4.25C12 4.53333 12.0417 4.81667 12.125 5.1C12.2083 5.38333 12.3333 5.64167 12.5 5.875L18.175 14.4C18.275 14.55 18.3542 14.7208 18.4125 14.9125C18.4708 15.1042 18.5 15.325 18.5 15.575C18.5 16.2583 18.2667 16.8333 17.8 17.3C17.3333 17.7667 16.7583 18 16.075 18H2.475ZM8 1.5V4.25C8 4.68333 7.9375 5.10417 7.8125 5.5125C7.6875 5.92083 7.50833 6.30833 7.275 6.675L4.15 11.375C4.05 11.5083 3.97917 11.6417 3.9375 11.775C3.89583 11.9083 3.875 12.0417 3.875 12.175C3.875 12.5583 4.01667 12.8875 4.3 13.1625C4.58333 13.4375 4.93333 13.575 5.35 13.575C5.81667 13.575 6.28333 13.475 6.75 13.275C7.21667 13.075 7.88333 12.6833 8.75 12.1C9.9 11.35 10.7625 10.8292 11.3375 10.5375C11.9125 10.2458 12.4917 10.0417 13.075 9.925C13.1417 9.90833 13.1875 9.87083 13.2125 9.8125C13.2375 9.75417 13.2333 9.69167 13.2 9.625L11.25 6.7C11 6.35 10.8125 5.96667 10.6875 5.55C10.5625 5.13333 10.5 4.7 10.5 4.25V1.5H8Z" fill="#D5D5D5"/>
</svg>
