<svg width="29" height="31" viewBox="0 0 29 31" fill="none" xmlns="http://www.w3.org/2000/svg">
<g clip-path="url(#clip0_6_24)">
<path d="M21.7605 25.8334C23.0952 25.8334 24.1772 24.6768 24.1772 23.25C24.1772 21.8233 23.0952 20.6667 21.7605 20.6667C20.4259 20.6667 19.3439 21.8233 19.3439 23.25C19.3439 24.6768 20.4259 25.8334 21.7605 25.8334Z" fill="#34A853"/>
<path d="M14.5106 20.6667C16.5127 20.6667 18.1356 18.9318 18.1356 16.7917C18.1356 14.6516 16.5127 12.9167 14.5106 12.9167C12.5086 12.9167 10.8856 14.6516 10.8856 16.7917C10.8856 18.9318 12.5086 20.6667 14.5106 20.6667Z" fill="#4285F4"/>
<path d="M3.625 21.8292C3.625 24.7532 5.8438 27.125 8.57917 27.125H14.5V24.5417L8.44323 24.5255C7.11406 24.5255 6.04167 23.2032 6.04167 21.6354V18.7292H3.625V21.8292Z" fill="#EA4335"/>
<path d="M25.375 11.7541C25.375 8.83014 23.1562 6.45831 20.4209 6.45831H17.5209L20.5417 9.04165C21.8709 9.04165 22.9584 10.3801 22.9584 11.9479V16.7916H25.375V11.7541Z" fill="#FBBC04"/>
<path d="M16.9167 3.875H12.0833L10.2708 6.45833H8.57917C5.8438 6.45833 3.625 8.83016 3.625 11.7542V14.8542H6.04167V11.9479C6.04167 10.3802 7.12917 9.04167 8.45833 9.04167H20.5417L16.9167 3.875Z" fill="#4285F4"/>
</g>
<defs>
<clipPath id="clip0_6_24">
<rect width="29" height="31" fill="white"/>
</clipPath>
</defs>
</svg>
