<svg width="21" height="20" viewBox="0 0 21 20" fill="none" xmlns="http://www.w3.org/2000/svg">
<path d="M10.5 6.66671C11.4625 6.66671 12.25 5.91671 12.25 5.00004C12.25 4.08337 11.4625 3.33337 10.5 3.33337C9.5375 3.33337 8.75 4.08337 8.75 5.00004C8.75 5.91671 9.5375 6.66671 10.5 6.66671ZM10.5 8.33337C9.5375 8.33337 8.75 9.08337 8.75 10C8.75 10.9167 9.5375 11.6667 10.5 11.6667C11.4625 11.6667 12.25 10.9167 12.25 10C12.25 9.08337 11.4625 8.33337 10.5 8.33337ZM10.5 13.3334C9.5375 13.3334 8.75 14.0834 8.75 15C8.75 15.9167 9.5375 16.6667 10.5 16.6667C11.4625 16.6667 12.25 15.9167 12.25 15C12.25 14.0834 11.4625 13.3334 10.5 13.3334Z" fill="#B9B9BA"/>
</svg>
