<svg width="31" height="31" viewBox="0 0 31 31" fill="none" xmlns="http://www.w3.org/2000/svg">
<path d="M15.5 19.375C17.6442 19.375 19.375 17.6829 19.375 15.5387V6.47123C19.375 4.32706 17.6442 2.58331 15.5 2.58331C13.3558 2.58331 11.625 4.31415 11.625 6.47123V15.5387C11.625 17.6829 13.3558 19.375 15.5 19.375Z" fill="#4285F4"/>
<path d="M14.2084 23.3533H16.7917V28.4167H14.2084V23.3533Z" fill="#34A853"/>
<path d="M9.10629 21.7904C7.46587 20.0725 6.45837 18.135 6.45837 15.5H9.04171C9.04171 17.3729 9.76504 18.6258 10.9405 19.8658V20.2792L9.45504 21.8033L9.10629 21.7904Z" fill="#FBBC04"/>
<path d="M15.5 21.8679C14.6503 21.8705 13.8086 21.6948 13.0237 21.3511C12.2388 21.0074 11.5263 20.5026 10.9275 19.8658L9.1062 21.7904C10.7337 23.5213 13.007 24.5417 15.5 24.5417C20.4987 24.5417 24.5287 20.77 24.5287 15.5H21.9583C21.9583 19.2717 19.065 21.8679 15.5 21.8679Z" fill="#EA4335"/>
</svg>
