<svg width="26" height="28" viewBox="0 0 26 28" fill="none" xmlns="http://www.w3.org/2000/svg">
<path d="M16.6628 15.8784L15.8754 15.9419L15.5728 15.6728C16.481 14.3215 16.9057 12.6555 16.7694 10.979C16.6575 9.59075 16.1681 8.26436 15.3631 7.16752C14.5581 6.07068 13.4736 5.25264 12.2469 4.81686C11.0202 4.38108 9.70631 4.34713 8.47135 4.7193C7.23639 5.09147 6.13585 5.85304 5.3089 6.90771C4.48196 7.96238 3.96574 9.26279 3.82554 10.6445C3.68533 12.0262 3.92744 13.4271 4.52123 14.6701C5.11503 15.9131 6.03385 16.9423 7.1615 17.6276C8.28915 18.313 9.57499 18.6236 10.8564 18.5203C12.4612 18.3909 13.885 17.6348 14.936 16.485L15.2295 16.7656L15.2983 17.6187L20.7166 22.6051L22.0721 20.8764L16.6628 15.8784ZM10.6823 16.3606C8.20032 16.5608 6.0218 14.5519 5.80499 11.8631C5.58818 9.17431 7.41666 6.8423 9.8986 6.64217C12.3805 6.44203 14.5591 8.45093 14.7759 11.1397C14.9927 13.8285 13.1642 16.1605 10.6823 16.3606Z" fill="black"/>
</svg>
